<?xml version="1.0" standalone="no"?>
<!DOCTYPE svg PUBLIC "-//W3C//DTD SVG 20010904//EN"
 "http://www.w3.org/TR/2001/REC-SVG-20010904/DTD/svg10.dtd">
<svg version="1.0" xmlns="http://www.w3.org/2000/svg"
 width="1024.000000pt" height="1024.000000pt" viewBox="0 0 1024.000000 1024.000000"
 preserveAspectRatio="xMidYMid meet">

<g transform="translate(0.000000,1024.000000) scale(0.100000,-0.100000)"
fill="#000000" stroke="none">
<path d="M4755 8265 c-569 -67 -1137 -293 -1597 -638 -592 -443 -1018 -1106
-1183 -1842 -94 -419 -93 -938 1 -1364 151 -678 527 -1306 1033 -1728 196
-162 447 -327 679 -442 307 -153 647 -257 1003 -306 166 -23 504 -30 684 -16
633 52 1247 289 1738 668 474 367 857 914 1048 1498 185 561 215 1111 94 1685
-130 614 -488 1235 -955 1658 -526 476 -1194 767 -1905 832 -149 14 -505 11
-640 -5z m700 -214 c124 -25 298 -72 291 -78 -3 -3 -29 0 -58 7 -159 34 -536
29 -773 -10 -176 -30 -509 -121 -493 -135 2 -1 71 2 153 7 493 31 922 -71
1343 -321 280 -166 578 -437 804 -731 245 -319 423 -703 502 -1078 64 -306 70
-368 70 -662 0 -297 -5 -349 -65 -630 -89 -422 -308 -868 -582 -1185 -105
-122 -282 -297 -339 -335 -21 -14 -38 -29 -38 -34 0 -21 72 -126 83 -120 71
41 195 132 283 208 547 470 898 1108 1023 1861 70 422 52 840 -55 1271 -33
137 -89 312 -133 422 -11 28 -19 52 -16 52 15 0 145 -323 198 -490 73 -235
110 -414 132 -655 56 -599 -44 -1242 -269 -1734 -197 -432 -505 -816 -865
-1079 l-84 -62 -31 25 c-86 71 -117 85 -188 85 l-67 0 -40 83 c-71 150 -147
454 -172 696 -15 147 -7 423 16 511 19 75 83 211 120 255 l25 30 -14 -45 c-7
-25 -16 -56 -20 -70 -14 -46 61 49 99 126 51 104 76 210 77 329 1 55 -2 111
-6 125 -16 56 14 -10 43 -94 16 -48 31 -89 34 -92 3 -3 10 33 17 80 18 129 0
243 -59 361 -10 22 -18 41 -17 43 2 1 18 -4 37 -12 83 -34 84 -33 35 38 -94
137 -89 262 11 260 45 -1 78 -20 145 -81 25 -23 57 -45 70 -48 34 -9 225 69
266 108 17 17 32 37 32 44 0 7 -24 28 -52 46 -59 38 -98 78 -158 167 -35 51
-38 60 -22 60 11 0 31 -9 45 -20 l26 -21 -19 57 c-11 31 -20 64 -20 73 0 20
-43 110 -64 136 l-17 20 9 -20 c5 -11 13 -40 16 -65 l6 -45 -24 45 c-13 25
-52 77 -86 115 -33 39 -73 91 -88 117 -15 27 -33 48 -39 48 -29 0 1 109 63
232 l35 69 -28 -7 c-92 -23 -240 -99 -314 -162 -38 -33 -40 -33 -90 -23 -66
14 -206 14 -286 -1 l-65 -12 44 -22 43 -23 -50 -1 c-62 0 -151 -21 -229 -53
-62 -26 -62 -27 14 -42 57 -12 55 -16 -17 -44 -90 -35 -173 -93 -254 -178 -63
-65 -125 -143 -115 -143 3 0 20 9 38 20 18 10 54 26 78 35 l45 15 -40 -32
c-22 -18 -98 -90 -170 -160 l-130 -129 79 36 c43 19 81 35 84 35 2 0 -15 -21
-39 -47 -25 -27 -72 -82 -106 -123 -60 -75 -127 -137 -212 -198 -65 -47 -67
-39 -4 20 52 50 139 165 131 173 -2 2 -24 -9 -48 -26 -75 -50 -176 -98 -349
-165 -90 -35 -198 -83 -240 -106 -92 -52 -225 -181 -297 -288 -63 -93 -178
-292 -200 -345 l-16 -40 67 65 66 65 -59 -105 c-32 -58 -96 -172 -141 -255
-96 -176 -126 -217 -141 -195 -22 33 -81 235 -101 347 -32 177 -24 342 21 476
39 116 124 252 200 320 53 48 120 92 280 184 52 30 86 52 75 49 -11 -3 -42 -8
-70 -12 l-50 -7 49 44 c81 72 156 128 244 182 45 27 82 51 82 53 0 5 -125 -27
-190 -48 -122 -39 -365 -138 -472 -193 -60 -29 -108 -51 -108 -48 0 14 117
147 149 169 45 30 29 31 -93 4 -50 -11 -92 -20 -94 -20 -5 0 2 31 24 107 l15
52 69 15 c38 9 133 25 212 36 79 12 163 27 188 34 218 65 389 203 477 383 45
94 55 146 15 81 -32 -51 -145 -155 -231 -212 -145 -97 -298 -144 -491 -152
l-125 -5 57 54 c31 30 112 101 180 157 67 57 165 144 216 194 50 50 92 87 92
83 0 -29 -35 -158 -51 -184 -31 -56 0 -37 86 50 63 64 92 103 124 168 23 47
45 104 48 127 3 23 7 42 8 42 1 0 28 -26 60 -57 70 -69 72 -66 51 79 -9 56
-18 148 -22 203 l-7 100 24 -21 c27 -23 72 -44 95 -44 13 0 13 3 0 29 -43 83
-80 285 -92 504 -4 70 -10 127 -13 127 -4 0 -12 -15 -19 -33 -43 -118 -205
-316 -336 -408 l-70 -49 45 0 c24 0 60 4 79 10 33 10 32 8 -35 -61 -69 -70
-69 -70 -31 -55 21 9 40 16 43 16 2 0 -9 -19 -26 -42 -32 -47 -143 -157 -206
-205 -44 -34 -156 -103 -167 -103 -3 0 9 26 28 58 41 67 64 139 64 198 l0 42
33 -8 c17 -4 58 -11 91 -14 l58 -6 -30 35 c-35 39 -76 158 -87 250 -4 33 -9
69 -12 80 -4 15 4 11 33 -17 35 -33 111 -75 120 -65 2 2 -10 36 -27 75 -16 40
-39 112 -49 160 -23 101 -44 338 -38 423 2 33 1 59 -2 59 -4 0 -30 -37 -57
-82 -109 -178 -233 -321 -367 -420 -68 -51 -189 -128 -201 -128 -2 0 3 24 12
53 17 59 62 154 95 200 l23 32 -42 -33 c-45 -35 -226 -233 -288 -315 -20 -26
-52 -80 -71 -120 -38 -81 -43 -68 -18 51 33 161 138 332 279 455 87 77 276
207 363 251 28 14 52 28 52 30 0 2 -23 -1 -51 -5 -207 -33 -472 -200 -711
-448 -65 -67 -118 -119 -118 -116 0 12 50 103 58 107 4 1 23 25 42 53 143 209
588 510 1000 677 186 75 398 133 615 167 187 30 177 29 450 26 210 -2 267 -6
360 -24z m944 -455 c7 -8 21 -18 32 -21 24 -8 25 -25 1 -25 -29 0 -54 -35 -59
-84 -5 -44 -23 -55 -23 -14 0 37 -31 86 -62 99 l-30 12 32 13 c32 14 60 63 60
107 0 47 14 37 25 -17 6 -30 17 -61 24 -70z m231 -145 c0 -6 -4 -13 -10 -16
-5 -3 -10 1 -10 9 0 9 5 16 10 16 6 0 10 -4 10 -9z m-3040 -492 c-102 -90
-222 -170 -236 -157 -6 7 21 152 32 169 3 5 33 9 67 10 34 0 87 6 117 13 30 6
57 10 60 8 3 -2 -15 -21 -40 -43z m3580 -129 c0 -5 -4 -10 -10 -10 -5 0 -10 5
-10 10 0 6 5 10 10 10 6 0 10 -4 10 -10z m-3677 -115 c-29 -37 -163 -149 -169
-142 -6 5 14 106 26 135 8 18 18 22 52 23 24 1 57 5 73 9 17 4 34 8 38 9 4 0
-5 -15 -20 -34z m736 -292 c-115 -194 -214 -308 -387 -446 -132 -106 -259
-193 -268 -184 -11 10 34 90 86 155 l50 62 -37 -15 c-59 -25 -109 -61 -144
-105 -18 -22 -34 -38 -37 -36 -9 10 63 120 116 178 49 52 74 69 177 118 159
75 282 152 380 238 44 39 81 71 83 71 2 1 -6 -16 -19 -36z m-909 23 c0 -3 -4
-8 -10 -11 -5 -3 -10 -1 -10 4 0 6 5 11 10 11 6 0 10 -2 10 -4z m-909 -99
c-10 -9 -11 -8 -5 6 3 10 9 15 12 12 3 -3 0 -11 -7 -18z m1031 -24 c-17 -21
-45 -52 -64 -69 -34 -32 -117 -88 -123 -82 -2 2 15 32 36 68 35 58 46 67 107
96 37 17 69 30 71 28 2 -2 -10 -20 -27 -41z m-979 -38 c9 -2 15 1 11 6 -3 5 0
9 7 9 6 0 9 -8 6 -20 -3 -11 -1 -23 4 -26 15 -9 -12 -36 -28 -30 -8 3 -12 2
-9 -3 3 -5 -13 -24 -37 -43 -47 -38 -117 -82 -117 -74 0 6 30 82 59 148 22 51
18 50 104 33z m394 -197 c-3 -7 -5 -2 -5 12 0 14 2 19 5 13 2 -7 2 -19 0 -25z
m-517 -384 c-22 -38 -45 -68 -51 -66 -6 1 -8 -2 -4 -7 3 -6 -4 -27 -15 -48
-14 -24 -19 -29 -14 -13 4 14 8 44 9 67 2 45 18 73 41 73 7 0 26 16 41 35 15
19 29 33 30 31 2 -2 -15 -34 -37 -72z m4288 -63 c6 -8 12 -18 12 -23 0 -28
-65 23 -94 73 l-20 34 45 -34 c24 -19 50 -41 57 -50z m872 -61 c0 -41 28 -89
56 -96 l27 -7 -34 -16 c-28 -13 -36 -24 -43 -58 -11 -50 -26 -57 -26 -13 0 32
-37 80 -62 80 -7 1 0 8 15 16 30 16 47 49 47 90 0 13 5 24 10 24 6 0 10 -9 10
-20z m-5260 -60 c-6 -11 -15 -20 -21 -20 -6 0 -7 -4 -4 -10 3 -5 2 -18 -4 -27
-8 -15 -10 -14 -7 7 1 14 11 35 21 48 24 27 29 28 15 2z m1020 -295 c-10 -12
-10 -15 1 -15 8 -1 3 -7 -11 -15 -34 -18 -38 -10 -10 20 25 27 40 34 20 10z
m2954 -285 c73 -141 90 -322 43 -458 -47 -136 -150 -278 -254 -351 -43 -29
-41 -22 7 34 132 153 195 350 188 588 -4 130 -11 160 -63 302 -10 29 52 -61
79 -115z m-1801 -183 c-111 -120 -190 -279 -227 -461 -9 -41 -16 -99 -16 -128
-1 -44 -3 -50 -12 -34 -14 25 -4 222 17 296 36 133 130 274 236 354 34 25 63
46 66 46 3 0 -26 -33 -64 -73z m-1411 -110 c-7 -8 -10 -16 -7 -19 3 -3 -4 -13
-15 -23 -18 -17 -20 -17 -14 -2 3 9 11 17 17 17 6 0 7 3 4 6 -3 4 -2 15 4 26
6 11 13 17 16 14 3 -3 1 -12 -5 -19z m48 17 c0 -8 -19 -13 -24 -6 -3 5 1 9 9
9 8 0 15 -2 15 -3z m1910 -569 c81 -54 173 -150 225 -234 20 -34 39 -61 41
-59 2 2 -3 31 -11 63 -7 33 -12 61 -11 63 8 7 72 -106 93 -166 14 -37 60 -186
103 -332 107 -357 209 -665 260 -780 22 -52 44 -101 47 -107 4 -10 -41 -13
-205 -13 -205 0 -280 11 -164 23 74 9 246 53 280 73 27 15 26 15 -18 9 -25 -3
-122 -8 -215 -12 -147 -5 -175 -4 -202 11 -21 10 -57 16 -101 16 l-70 0 -30
48 c-123 195 -191 351 -199 458 -5 65 -3 79 20 126 14 29 53 84 87 121 33 37
67 81 75 97 27 53 31 33 8 -45 -13 -45 49 31 85 105 36 73 37 79 37 185 0 109
0 111 -40 185 -23 43 -68 102 -106 142 -37 37 -64 68 -62 68 3 0 36 -20 73
-45z m-2070 -105 c4 0 6 -9 3 -20 -3 -11 -9 -17 -14 -14 -5 3 -6 -1 -4 -9 3
-7 1 -24 -4 -38 -9 -22 -10 -22 -10 -3 -1 12 2 50 6 85 6 45 9 54 11 32 2 -18
7 -33 12 -33z m1755 -197 c26 -68 30 -91 30 -178 0 -90 -3 -106 -29 -158 -25
-52 -98 -126 -137 -139 -13 -4 133 -373 200 -507 23 -44 41 -83 41 -85 0 -8
-90 34 -185 87 -150 83 -275 171 -369 258 -93 87 -180 194 -170 210 8 13 164
131 164 124 0 -3 -11 -23 -25 -45 -14 -22 -25 -42 -25 -45 0 -3 26 12 58 33
61 42 178 160 208 211 25 43 38 39 19 -6 -8 -20 -13 -38 -11 -40 18 -18 142
200 171 300 9 31 20 57 23 57 4 0 21 -35 37 -77z m1134 -415 c11 -46 31 -112
45 -148 l25 -65 1 75 1 75 48 -191 c75 -292 137 -463 202 -556 30 -42 22 -45
-18 -7 -72 68 -93 79 -144 79 -43 0 -50 3 -63 29 -41 78 -119 392 -146 587
-17 122 -32 396 -24 449 7 47 8 43 30 -97 13 -81 32 -185 43 -230z m-2642 -15
c0 -9 -4 -10 -14 -2 -7 6 -13 12 -13 14 0 1 6 2 13 2 8 0 14 -6 14 -14z"/>
<path d="M5065 7576 c-84 -36 -127 -154 -90 -244 74 -175 323 -156 364 28 10
45 4 98 -17 135 -16 30 -64 72 -95 84 -39 15 -125 13 -162 -3z"/>
<path d="M5611 7401 c-16 -30 -13 -56 9 -76 16 -15 26 -17 47 -9 40 14 51 39
33 72 -20 35 -73 43 -89 13z"/>
<path d="M5996 7035 c-13 -35 26 -67 52 -41 21 20 6 56 -23 56 -12 0 -25 -7
-29 -15z"/>
<path d="M5705 6898 c-68 -37 -75 -156 -11 -186 58 -28 114 -18 146 27 62 88
-42 210 -135 159z"/>
<path d="M5005 6876 c-174 -82 -221 -323 -92 -464 58 -62 107 -84 198 -90 164
-10 274 70 314 226 34 131 -37 273 -165 331 -67 30 -188 29 -255 -3z"/>
<path d="M6146 6513 c-23 -12 -27 -20 -24 -51 2 -28 10 -40 31 -52 24 -13 30
-13 55 0 33 19 41 63 17 90 -23 25 -47 30 -79 13z"/>
<path d="M6635 6223 c-63 -32 -94 -59 -111 -100 -25 -58 -18 -85 34 -135 l47
-47 0 63 c1 52 8 77 43 151 23 48 41 89 40 90 -2 2 -25 -8 -53 -22z"/>
<path d="M3870 4937 c-96 -76 -172 -191 -206 -313 -19 -69 -31 -284 -17 -309
7 -13 12 4 17 63 16 199 99 399 228 555 22 26 38 47 36 47 -1 0 -28 -19 -58
-43z"/>
<path d="M2279 5682 c-11 -14 -11 -15 0 -5 7 6 20 9 27 6 8 -3 14 -3 14 0 0
14 -30 14 -41 -1z"/>
</g>
</svg>
